<svg height="481pt" viewBox="-8 0 481 481.264" width="481pt" xmlns="http://www.w3.org/2000/svg"><path d="m444.03125 444.027344h-423.796875c-8.894531 0-16.101563-7.210938-16.101563-16.101563v-279.460937c0-8.894532 7.210938-16.101563 16.101563-16.101563h423.796875c8.894531 0 16.101562 7.210938 16.101562 16.101563v279.460937c0 8.890625-7.210937 16.101563-16.101562 16.101563zm0 0" fill="#4671c6"/><path d="m444.03125 448.027344h-423.796875c-11.085937 0-20.101563-9.019532-20.101563-20.105469v-279.457031c0-11.085938 9.015626-20.101563 20.101563-20.101563h423.796875c11.082031 0 20.101562 9.015625 20.101562 20.101563v279.460937c0 11.082031-9.019531 20.101563-20.101562 20.101563zm-423.796875-311.664063c-6.671875 0-12.101563 5.429688-12.101563 12.101563v279.460937c0 6.671875 5.429688 12.101563 12.101563 12.101563h423.796875c6.671875 0 12.101562-5.429688 12.101562-12.101563v-279.460937c0-6.671875-5.429687-12.101563-12.101562-12.101563zm0 0" fill="#3762cc"/><path d="m109.574219 432.816406h-71.070313c-9.0625 0-16.410156-7.347656-16.410156-16.410156v-256.28125c0-9.0625 7.347656-16.410156 16.410156-16.410156h71.066406c9.0625 0 16.410157 7.347656 16.410157 16.410156v256.28125c0 9.0625-7.34375 16.410156-16.40625 16.410156zm0 0" fill="#a4c9ff"/><path d="m363.914062 238.984375h-154.097656c-8.03125 0-14.542968-6.511719-14.542968-14.542969v-52.824218c0-8.03125 6.511718-14.542969 14.542968-14.542969h154.097656c8.03125 0 14.542969 6.511719 14.542969 14.542969v52.824218c0 8.03125-6.511719 14.542969-14.542969 14.542969zm0 0" fill="#f9a7a7"/><g fill="#6bdddd"><path d="m231.890625 301.363281h-30.015625c-4.015625 0-7.269531-3.257812-7.269531-7.269531v-25.851562c0-4.015626 3.257812-7.269532 7.269531-7.269532h30.015625c4.015625 0 7.269531 3.257813 7.269531 7.269532v25.851562c.003906 4.015625-3.253906 7.269531-7.269531 7.269531zm0 0"/><path d="m301.539062 301.363281h-30.015624c-4.015626 0-7.269532-3.257812-7.269532-7.269531v-25.851562c0-4.015626 3.253906-7.269532 7.269532-7.269532h30.015624c4.015626 0 7.269532 3.257813 7.269532 7.269532v25.851562c0 4.015625-3.253906 7.269531-7.269532 7.269531zm0 0"/><path d="m371.183594 301.363281h-30.015625c-4.015625 0-7.269531-3.257812-7.269531-7.269531v-25.851562c0-4.015626 3.253906-7.269532 7.269531-7.269532h30.015625c4.015625 0 7.269531 3.257813 7.269531 7.269532v25.851562c.003906 4.015625-3.253906 7.269531-7.269531 7.269531zm0 0"/><path d="m231.890625 358.582031h-30.015625c-4.015625 0-7.269531-3.257812-7.269531-7.269531v-25.847656c0-4.015625 3.257812-7.269532 7.269531-7.269532h30.015625c4.015625 0 7.269531 3.253907 7.269531 7.269532v25.847656c.003906 4.015625-3.253906 7.269531-7.269531 7.269531zm0 0"/><path d="m301.539062 358.582031h-30.015624c-4.015626 0-7.269532-3.257812-7.269532-7.269531v-25.847656c0-4.015625 3.253906-7.269532 7.269532-7.269532h30.015624c4.015626 0 7.269532 3.253907 7.269532 7.269532v25.847656c0 4.015625-3.253906 7.269531-7.269532 7.269531zm0 0"/><path d="m371.183594 358.582031h-30.015625c-4.015625 0-7.269531-3.257812-7.269531-7.269531v-25.847656c0-4.015625 3.253906-7.269532 7.269531-7.269532h30.015625c4.015625 0 7.269531 3.253907 7.269531 7.269532v25.847656c.003906 4.015625-3.253906 7.269531-7.269531 7.269531zm0 0"/><path d="m231.890625 415.800781h-30.015625c-4.015625 0-7.269531-3.253906-7.269531-7.269531v-25.847656c0-4.015625 3.257812-7.269532 7.269531-7.269532h30.015625c4.015625 0 7.269531 3.257813 7.269531 7.269532v25.847656c.003906 4.015625-3.253906 7.269531-7.269531 7.269531zm0 0"/><path d="m301.539062 415.800781h-30.015624c-4.015626 0-7.269532-3.253906-7.269532-7.269531v-25.847656c0-4.015625 3.253906-7.269532 7.269532-7.269532h30.015624c4.015626 0 7.269532 3.257813 7.269532 7.269532v25.847656c0 4.015625-3.253906 7.269531-7.269532 7.269531zm0 0"/><path d="m371.183594 415.800781h-30.015625c-4.015625 0-7.269531-3.253906-7.269531-7.269531v-25.847656c0-4.015625 3.253906-7.269532 7.269531-7.269532h30.015625c4.015625 0 7.269531 3.257813 7.269531 7.269532v25.847656c.003906 4.015625-3.253906 7.269531-7.269531 7.269531zm0 0"/></g><path d="m109.574219 436.816406h-71.070313c-11.25 0-20.40625-9.15625-20.40625-20.410156v-256.28125c0-11.253906 9.15625-20.410156 20.40625-20.410156h71.070313c11.253906 0 20.410156 9.15625 20.410156 20.410156v256.28125c-.003906 11.253906-9.15625 20.410156-20.410156 20.410156zm-71.070313-289.101562c-6.84375 0-12.40625 5.566406-12.40625 12.410156v256.28125c0 6.84375 5.5625 12.410156 12.40625 12.410156h71.070313c6.839843 0 12.410156-5.566406 12.410156-12.410156v-256.28125c0-6.84375-5.566406-12.410156-12.410156-12.410156zm0 0" fill="#3762cc"/><path d="m87.449219 450.675781h-26.820313c-2.613281 0-4.734375-2.121093-4.734375-4.738281v-13.121094h36.292969v13.121094c-.003906 2.613281-2.125 4.738281-4.738281 4.738281zm0 0" fill="#f9cfcf"/><path d="m87.449219 454.675781h-26.820313c-4.816406 0-8.738281-3.921875-8.738281-8.738281v-13.121094c0-2.207031 1.792969-4 4-4h36.292969c2.207031 0 4 1.792969 4 4v13.121094c0 4.816406-3.917969 8.738281-8.734375 8.738281zm-27.558594-17.859375v9.121094c0 .40625.332031.738281.738281.738281h26.820313c.40625 0 .734375-.332031.734375-.738281v-9.121094zm0 0" fill="#3762cc"/><path d="m66.34375 450.675781v19.96875c0 3.65625 3.445312 6.621094 7.695312 6.621094s7.695313-2.964844 7.695313-6.621094v-19.96875zm0 0" fill="#e0ebfc"/><path d="m74.039062 481.265625c-6.449218 0-11.695312-4.765625-11.695312-10.621094v-19.972656c0-2.207031 1.789062-4 4-4h15.386719c2.210937 0 4 1.792969 4 4v19.972656c.003906 5.859375-5.242188 10.621094-11.691407 10.621094zm-3.695312-26.589844v15.96875c0 1.394531 1.722656 2.621094 3.695312 2.621094 1.96875 0 3.695313-1.222656 3.695313-2.621094v-15.96875zm0 0" fill="#3762cc"/><path d="m425.164062 132.363281h-288.574218v-35.34375c0-8.992187 7.289062-16.285156 16.28125-16.285156h256.011718c8.992188 0 16.28125 7.292969 16.28125 16.285156zm0 0" fill="#a4c9ff"/><path d="m425.164062 136.363281h-288.574218c-2.210938 0-4-1.792969-4-4v-35.34375c0-11.183593 9.097656-20.285156 20.28125-20.285156h256.011718c11.183594 0 20.28125 9.101563 20.28125 20.285156v35.34375c0 2.207031-1.789062 4-4 4zm-284.574218-8h280.574218v-31.34375c0-6.773437-5.507812-12.285156-12.28125-12.285156h-256.011718c-6.773438 0-12.28125 5.511719-12.28125 12.285156zm0 0" fill="#3762cc"/><path d="m403.039062 132.363281h-242.046874v-120.222656c0-4.496094 3.648437-8.144531 8.144531-8.144531h225.761719c4.496093 0 8.144531 3.648437 8.144531 8.144531v120.222656zm0 0" fill="#e0ebfc"/><path d="m403.039062 136.363281h-242.046874c-2.207032 0-4-1.792969-4-4v-120.222656c0-6.695313 5.449218-12.140625 12.144531-12.140625h225.761719c6.695312 0 12.140624 5.445312 12.140624 12.140625v120.222656c0 2.207031-1.789062 4-4 4zm-238.046874-8h234.046874v-116.222656c0-2.285156-1.855468-4.140625-4.140624-4.140625h-225.765626c-2.28125 0-4.140624 1.859375-4.140624 4.140625zm0 0" fill="#3762cc"/><path d="m136.585938 444.027344h288.578124v19.546875c0 7.132812-5.78125 12.910156-12.910156 12.910156h-262.757812c-7.128906 0-12.910156-5.777344-12.910156-12.910156zm0 0" fill="#a4c9ff"/><path d="m412.253906 480.484375h-262.757812c-9.324219 0-16.910156-7.585937-16.910156-16.910156v-19.546875c0-2.207032 1.792968-4 4-4h288.578124c2.207032 0 4 1.792968 4 4v19.546875c0 9.324219-7.585937 16.910156-16.910156 16.910156zm-271.667968-32.457031v15.542968c0 4.914063 4 8.914063 8.910156 8.914063h262.757812c4.910156 0 8.910156-4 8.910156-8.914063v-15.542968zm0 0" fill="#3762cc"/><path d="m370.679688 57.652344h-177.324219c-4.417969 0-8-3.582032-8-8 0-4.417969 3.582031-8 8-8h177.324219c4.417968 0 8 3.582031 8 8 0 4.417968-3.582032 8-8 8zm0 0" fill="#f9a7a7"/><path d="m370.679688 97.652344h-177.324219c-4.417969 0-8-3.582032-8-8 0-4.417969 3.582031-8 8-8h177.324219c4.417968 0 8 3.582031 8 8 0 4.417968-3.582032 8-8 8zm0 0" fill="#f9a7a7"/></svg>